<svg width="49" height="48" viewBox="0 0 49 48" fill="none" xmlns="http://www.w3.org/2000/svg">
    <path
        d="M40.5 6.00116C40.5006 6.87405 40.3107 7.73655 39.9436 8.52849C39.5765 9.32043 39.041 10.0227 38.3745 10.5864C37.708 11.1501 36.9265 11.5615 36.0846 11.792C35.2427 12.0226 34.3607 12.0666 33.5 11.9212L31.008 16.4092C32.928 18.0572 34.22 20.4252 34.46 23.0972L37.1 23.3892C37.717 22.1154 38.7645 21.1008 40.0573 20.5246C41.35 19.9484 42.8048 19.8478 44.1646 20.2405C45.5244 20.6333 46.7015 21.494 47.4881 22.6707C48.2746 23.8474 48.6198 25.2642 48.4627 26.6708C48.3056 28.0774 47.6564 29.3832 46.6297 30.3574C45.603 31.3316 44.2649 31.9115 42.852 31.9946C41.4391 32.0777 40.0423 31.6586 38.9085 30.8115C37.7747 29.9643 36.9769 28.7437 36.656 27.3652L34.02 27.0732C33.2588 29.4331 31.6479 31.426 29.5 32.6652L30.608 36.0012C32.0231 36.0273 33.3834 36.5529 34.4485 37.485C35.5135 38.417 36.2148 39.6956 36.4284 41.0948C36.642 42.4939 36.3541 43.9235 35.6156 45.1309C34.8771 46.3382 33.7355 47.2457 32.3927 47.6928C31.0498 48.14 29.5921 48.098 28.2772 47.5744C26.9623 47.0507 25.8749 46.0791 25.2071 44.8313C24.5392 43.5834 24.334 42.1396 24.6277 40.7551C24.9214 39.3706 25.6951 38.1344 26.812 37.2652L25.7 33.9292C24.0656 34.1272 22.4076 33.9187 20.8732 33.3221C19.3387 32.7255 17.9753 31.7592 16.904 30.5092L12.416 33.0012C12.472 33.3265 12.5 33.6598 12.5 34.0012C12.5002 35.3734 12.0301 36.7043 11.1679 37.7718C10.3058 38.8394 9.10377 39.5792 7.76224 39.8679C6.42071 40.1566 5.02076 39.9767 3.7958 39.3582C2.57084 38.7398 1.59489 37.7201 1.03066 36.4692C0.466435 35.2184 0.348027 33.8119 0.695182 32.4843C1.04234 31.1567 1.83407 29.9882 2.93839 29.1736C4.04271 28.3591 5.39288 27.9477 6.76379 28.008C8.1347 28.0683 9.44351 28.5967 10.472 29.5052L14.96 27.0132C14.512 25.5921 14.3873 24.0888 14.5949 22.6134C14.8026 21.1379 15.3373 19.7274 16.16 18.4852L13.088 15.4172C11.8108 16.0272 10.3591 16.1661 8.9894 15.8093C7.61971 15.4525 6.42025 14.623 5.60304 13.4673C4.78583 12.3117 4.40347 10.9043 4.52356 9.49402C4.64365 8.08372 5.25845 6.76128 6.25929 5.76044C7.26013 4.7596 8.58257 4.14481 9.99287 4.02472C11.4032 3.90463 12.8105 4.28698 13.9662 5.1042C15.1218 5.92141 15.9513 7.12087 16.3082 8.49056C16.665 9.86025 16.5261 11.312 15.916 12.5892L18.984 15.6572C20.2254 14.8325 21.6361 14.2969 23.1121 14.0899C24.588 13.8829 26.0916 14.0098 27.512 14.4612L30.004 9.97316C29.3609 9.24548 28.9041 8.37258 28.6728 7.42943C28.4414 6.48628 28.4424 5.50107 28.6758 4.5584C28.9091 3.61574 29.3677 2.7438 30.0123 2.01746C30.6569 1.29112 31.4681 0.732089 32.3764 0.38838C33.2846 0.0446707 34.2628 -0.0734465 35.2267 0.0441729C36.1907 0.161792 37.1117 0.511633 37.9106 1.06365C38.7096 1.61567 39.3626 2.35336 39.8136 3.21338C40.2647 4.07341 40.5002 5.03005 40.5 6.00116Z"
        fill="#282826" />
</svg>