<svg width="345" height="205" viewBox="0 0 345 205" fill="none" xmlns="http://www.w3.org/2000/svg">
<path d="M0.554688 131V74.125H34.4609V84.9844H14.2656V98.1094H31.8828V108.031H14.2656V131H0.554688Z" fill="#282826"/>
<path d="M37.4297 104.125V101C37.4297 91.3385 39.6172 84.3073 43.9922 79.9062C48.3932 75.5052 54.0443 73.3047 60.9453 73.3047C67.8464 73.3047 73.4844 75.5052 77.8594 79.9062C82.2604 84.3073 84.4609 91.3385 84.4609 101V104.125C84.4609 113.786 82.2604 120.818 77.8594 125.219C73.4844 129.62 67.8464 131.82 60.9453 131.82C54.0443 131.82 48.3932 129.62 43.9922 125.219C39.6172 120.818 37.4297 113.786 37.4297 104.125ZM51.6875 107.953C51.6875 113.161 52.5078 116.872 54.1484 119.086C55.7891 121.299 58.0547 122.406 60.9453 122.406C63.8359 122.406 66.1016 121.299 67.7422 119.086C69.3828 116.872 70.2031 113.161 70.2031 107.953V97.25C70.2031 92.0677 69.3828 88.3828 67.7422 86.1953C66.1016 83.9818 63.8359 82.875 60.9453 82.875C58.0547 82.875 55.7891 83.9818 54.1484 86.1953C52.5078 88.3828 51.6875 92.0677 51.6875 97.25V107.953Z" fill="#282826"/>
<path d="M90.3203 131V74.125H113.289C118.81 74.125 123.172 75.7656 126.375 79.0469C129.604 82.3281 131.219 86.651 131.219 92.0156C131.219 97.5365 129.526 102.029 126.141 105.492C122.755 108.93 118.419 110.648 113.133 110.648H104.031V131H90.3203ZM104.031 101.703H110.203C112.859 101.703 114.721 100.87 115.789 99.2031C116.883 97.5365 117.43 95.401 117.43 92.7969C117.43 90.1667 116.883 88.0312 115.789 86.3906C114.721 84.724 112.859 83.8776 110.203 83.8516H104.031V101.703ZM118.641 131L108.094 106.156L120.281 102.836L133.562 131H118.641Z" fill="#282826"/>
<path d="M194.693 102.853L219.972 76.5002L220.488 129.744L194.693 102.853Z" fill="#F3CEB4" stroke="#282826"/>
<path d="M174.615 102.853L199.894 76.5002L200.41 129.744L174.615 102.853Z" fill="#F3CEB4" stroke="#282826"/>
<path d="M153.845 102.853L180.845 131L180.305 75.269L153.845 102.853Z" fill="#F3CEB4" stroke="#282826"/>
<rect x="241.5" y="129.211" width="54.711" height="102" rx="27.3555" transform="rotate(-90 241.5 129.211)" stroke="#282826"/>
<line x1="343.599" y1="101.56" x2="241" y2="101.56" stroke="#282826"/>
<path d="M297.109 102.253C297.109 109.641 294.153 116.726 288.892 121.95C283.631 127.174 276.495 130.109 269.054 130.109C261.614 130.109 254.478 127.174 249.217 121.95C243.956 116.726 241 109.641 241 102.253L269.054 102.253L297.109 102.253Z" fill="#FF8F40"/>
<path d="M269.054 74.898C284.276 74.898 296.609 87.1488 296.609 102.253C296.609 117.358 284.276 129.609 269.054 129.609C253.833 129.609 241.5 117.358 241.5 102.253C241.5 87.1488 253.833 74.898 269.054 74.898Z" stroke="#282826"/>
<path d="M28.5 147.5H50.5C65.6878 147.5 78 159.812 78 175C78 190.188 65.6878 202.5 50.5 202.5H28.5C13.3122 202.5 1 190.188 1 175C1 159.812 13.3122 147.5 28.5 147.5Z" fill="#F9F5F2" stroke="#282826"/>
<path d="M28.6001 147.5H50.5001C65.6879 147.5 78.0001 159.812 78.0001 175C78.0001 190.188 65.6879 202.5 50.5001 202.5H28.6001V147.5Z" fill="#FFC700" stroke="#282826"/>
<path d="M111.865 149.182L120.279 167.21L120.356 167.375L120.521 167.452L138.549 175.865L120.521 184.279L120.356 184.356L120.279 184.521L111.865 202.549L103.452 184.521L103.375 184.356L103.21 184.279L85.1823 175.865L103.21 167.452L103.375 167.375L103.452 167.21L111.865 149.182Z" fill="#7FBC8C" stroke="#282826"/>
<path d="M0.789062 58V1.125H14.6953V58H0.789062Z" fill="#282826"/>
<path d="M22.0391 58V1.125H35.8672L50.5938 32.4531C50.9583 33.3125 51.2969 34.224 51.6094 35.1875C51.9219 36.125 52.1953 37.0104 52.4297 37.8438H52.625C52.5729 36.9583 52.5469 36.0469 52.5469 35.1094C52.5729 34.1458 52.5859 33.2214 52.5859 32.3359V1.125H64.2266V58H50.7891L35.5938 26.3594C35.2552 25.5521 34.9167 24.7057 34.5781 23.8203C34.2656 22.9349 34.0052 22.0755 33.7969 21.2422H33.5625C33.6406 22.1276 33.6797 22.987 33.6797 23.8203C33.6797 24.6536 33.6797 25.513 33.6797 26.3984V58H22.0391Z" fill="#282826"/>
<path d="M71.3359 58V1.125H85.1641L99.8906 32.4531C100.255 33.3125 100.594 34.224 100.906 35.1875C101.219 36.125 101.492 37.0104 101.727 37.8438H101.922C101.87 36.9583 101.844 36.0469 101.844 35.1094C101.87 34.1458 101.883 33.2214 101.883 32.3359V1.125H113.523V58H100.086L84.8906 26.3594C84.5521 25.5521 84.2135 24.7057 83.875 23.8203C83.5625 22.9349 83.3021 22.0755 83.0938 21.2422H82.8594C82.9375 22.1276 82.9766 22.987 82.9766 23.8203C82.9766 24.6536 82.9766 25.513 82.9766 26.3984V58H71.3359Z" fill="#282826"/>
<path d="M119.383 31.125V28C119.383 18.3385 121.57 11.3073 125.945 6.90625C130.346 2.50521 135.997 0.304688 142.898 0.304688C149.799 0.304688 155.438 2.50521 159.812 6.90625C164.214 11.3073 166.414 18.3385 166.414 28V31.125C166.414 40.7865 164.214 47.8177 159.812 52.2188C155.438 56.6198 149.799 58.8203 142.898 58.8203C135.997 58.8203 130.346 56.6198 125.945 52.2188C121.57 47.8177 119.383 40.7865 119.383 31.125ZM133.641 34.9531C133.641 40.1615 134.461 43.8724 136.102 46.0859C137.742 48.2995 140.008 49.4062 142.898 49.4062C145.789 49.4062 148.055 48.2995 149.695 46.0859C151.336 43.8724 152.156 40.1615 152.156 34.9531V24.25C152.156 19.0677 151.336 15.3828 149.695 13.1953C148.055 10.9818 145.789 9.875 142.898 9.875C140.008 9.875 137.742 10.9818 136.102 13.1953C134.461 15.3828 133.641 19.0677 133.641 24.25V34.9531Z" fill="#282826"/>
<path d="M166.609 1.125H180.594L191.219 37.4922C191.375 38.0391 191.531 38.612 191.688 39.2109C191.844 39.7839 192 40.3177 192.156 40.8125H192.312C192.417 40.3177 192.547 39.7578 192.703 39.1328C192.885 38.4818 193.055 37.9349 193.211 37.4922L203.758 1.125H217.117L199.539 58.3125H184.148L166.609 1.125Z" fill="#282826"/>
<path d="M212.078 58L230.164 1.08594H245.438L263.172 58H249.695L238.562 19.4453C238.25 18.4036 237.99 17.4922 237.781 16.7109C237.599 15.9036 237.43 15.2135 237.273 14.6406H237.156C237 15.2135 236.818 15.8906 236.609 16.6719C236.427 17.4531 236.193 18.3776 235.906 19.4453L225.281 58H212.078ZM222.43 46.6328L224.344 37.5703H250.438L252.508 46.6328H222.43Z" fill="#282826"/>
<path d="M258.758 11.9844V1.125H302.703V11.9844H287.703V58H273.836V11.9844H258.758Z" fill="#282826"/>
<path d="M306.648 58V1.125H343.406V11.9844H319.812V24.3281H339.93V33.9375H319.812V47.4922H343.953V58H306.648Z" fill="#282826"/>
<path d="M147.305 177.125V174C147.305 164.938 149.44 158.062 153.711 153.375C158.008 148.661 163.828 146.305 171.172 146.305C177.812 146.305 182.878 147.932 186.367 151.188C189.883 154.443 191.641 158.714 191.641 164V165.758H178.711V164.703C178.711 161.995 178.034 159.924 176.68 158.492C175.352 157.034 173.359 156.305 170.703 156.305C167.786 156.305 165.521 157.464 163.906 159.781C162.318 162.099 161.523 165.719 161.523 170.641V180.719C161.523 185.432 162.396 189.039 164.141 191.539C165.885 194.013 168.346 195.25 171.523 195.25C173.086 195.25 174.453 195.042 175.625 194.625C176.823 194.182 177.904 193.518 178.867 192.633V183.023H170.742V173.844L191.797 173.805V197.047C190.443 198.688 188.06 200.393 184.648 202.164C181.263 203.935 176.836 204.82 171.367 204.82C163.997 204.82 158.138 202.477 153.789 197.789C149.466 193.076 147.305 186.188 147.305 177.125Z" fill="#282826"/>
<path d="M196.523 177.125V174C196.523 164.339 198.711 157.307 203.086 152.906C207.487 148.505 213.138 146.305 220.039 146.305C226.94 146.305 232.578 148.505 236.953 152.906C241.354 157.307 243.555 164.339 243.555 174V177.125C243.555 186.786 241.354 193.818 236.953 198.219C232.578 202.62 226.94 204.82 220.039 204.82C213.138 204.82 207.487 202.62 203.086 198.219C198.711 193.818 196.523 186.786 196.523 177.125ZM210.781 180.953C210.781 186.161 211.602 189.872 213.242 192.086C214.883 194.299 217.148 195.406 220.039 195.406C222.93 195.406 225.195 194.299 226.836 192.086C228.477 189.872 229.297 186.161 229.297 180.953V170.25C229.297 165.068 228.477 161.383 226.836 159.195C225.195 156.982 222.93 155.875 220.039 155.875C217.148 155.875 214.883 156.982 213.242 159.195C211.602 161.383 210.781 165.068 210.781 170.25V180.953Z" fill="#282826"/>
<path d="M248.164 177.125V174C248.164 164.339 250.352 157.307 254.727 152.906C259.128 148.505 264.779 146.305 271.68 146.305C278.581 146.305 284.219 148.505 288.594 152.906C292.995 157.307 295.195 164.339 295.195 174V177.125C295.195 186.786 292.995 193.818 288.594 198.219C284.219 202.62 278.581 204.82 271.68 204.82C264.779 204.82 259.128 202.62 254.727 198.219C250.352 193.818 248.164 186.786 248.164 177.125ZM262.422 180.953C262.422 186.161 263.242 189.872 264.883 192.086C266.523 194.299 268.789 195.406 271.68 195.406C274.57 195.406 276.836 194.299 278.477 192.086C280.117 189.872 280.938 186.161 280.938 180.953V170.25C280.938 165.068 280.117 161.383 278.477 159.195C276.836 156.982 274.57 155.875 271.68 155.875C268.789 155.875 266.523 156.982 264.883 159.195C263.242 161.383 262.422 165.068 262.422 170.25V180.953Z" fill="#282826"/>
<path d="M301.055 204V147.125H320.977C328.294 147.125 334.01 149.482 338.125 154.195C342.24 158.883 344.297 165.458 344.297 173.922V177.008C344.297 185.445 342.24 192.06 338.125 196.852C334.036 201.617 328.32 204 320.977 204H301.055ZM314.414 194.469H319.648C323.112 194.469 325.781 193.167 327.656 190.562C329.531 187.958 330.469 184.065 330.469 178.883V172.32C330.469 167.06 329.505 163.206 327.578 160.758C325.651 158.284 323.008 157.034 319.648 157.008H314.414V194.469Z" fill="#282826"/>
</svg>
