<svg width="146" height="79" viewBox="0 0 146 79" fill="none" xmlns="http://www.w3.org/2000/svg">
    <rect x="1.88718" y="77.3628" width="76.2801" height="142.85" rx="38.14"
        transform="rotate(-90 1.88718 77.3628)" stroke="#282826" stroke-width="2.14935" />
    <path
        d="M79.2293 39.4287C79.2293 49.5854 75.1501 59.3261 67.889 66.508C60.6279 73.6899 50.7798 77.7246 40.5111 77.7246C30.2424 77.7246 20.3943 73.6899 13.1333 66.508C5.87219 59.3261 1.79297 49.5854 1.79297 39.4287L40.5111 39.4287L79.2293 39.4287Z"
        fill="#7FBC8C" />
    <path
        d="M39.9499 1.78443C60.9735 1.78444 78.0165 18.8278 78.0165 39.852C78.0165 60.8761 60.9735 77.9195 39.9499 77.9195C18.9263 77.9195 1.88327 60.8761 1.88327 39.8519C1.88328 18.8278 18.9263 1.78443 39.9499 1.78443Z"
        stroke="#282826" stroke-width="2.14935" />
    <line x1="145.391" y1="39.8735" x2="0.955673" y2="39.8735" stroke="#282826"
        stroke-width="2.14935" />
</svg>