<svg width="80" height="81" viewBox="0 0 80 81" fill="none" xmlns="http://www.w3.org/2000/svg">
    <path
        d="M0.0686318 40.932C0.0686324 30.5527 4.18854 20.5985 11.522 13.2593C18.8555 5.92003 28.8019 1.79687 39.173 1.79687C49.5441 1.79687 59.4905 5.92003 66.8239 13.2593C74.1574 20.5986 78.2773 30.5527 78.2773 40.932L39.173 40.932L0.0686318 40.932Z"
        fill="#282826" />
    <path
        d="M39.7417 79.1432C18.6733 79.1432 1.56675 61.8572 1.56675 40.5C1.56676 19.1428 18.6733 1.85676 39.7417 1.85676C60.8101 1.85676 77.9167 19.1428 77.9167 40.5C77.9167 61.8572 60.8101 79.1432 39.7417 79.1432Z"
        stroke="#282826" stroke-width="2.71353" />
    <path
        d="M0.0686318 40.932C0.0686324 30.5527 4.18854 20.5985 11.522 13.2593C18.8555 5.92003 28.8019 1.79687 39.173 1.79687C49.5441 1.79687 59.4905 5.92003 66.8239 13.2593C74.1574 20.5986 78.2773 30.5527 78.2773 40.932L39.173 40.932L0.0686318 40.932Z"
        fill="#FF8F40" />
    <path
        d="M39.7417 79.1432C18.6733 79.1432 1.56675 61.8572 1.56675 40.5C1.56676 19.1428 18.6733 1.85676 39.7417 1.85676C60.8101 1.85676 77.9167 19.1428 77.9167 40.5C77.9167 61.8572 60.8101 79.1432 39.7417 79.1432Z"
        stroke="#282826" stroke-width="2.71353" />
    <line x1="-5.93049e-08" y1="39.5241" x2="79.2781" y2="39.5241" stroke="#282826"
        stroke-width="2.71353" />
</svg>