<svg width="145" height="79" viewBox="0 0 145 79" fill="none" xmlns="http://www.w3.org/2000/svg">
    <rect x="143.925" y="1.64109" width="76.2801" height="142.851" rx="38.14"
        transform="rotate(90 143.925 1.64109)" stroke="#282826" stroke-width="2.14936" />
    <path
        d="M66.5828 39.5693C66.5828 29.4126 70.662 19.6719 77.9231 12.49C85.1842 5.30817 95.0324 1.27344 105.301 1.27344C115.57 1.27344 125.418 5.30817 132.679 12.49C139.94 19.6719 144.02 29.4126 144.02 39.5693L105.301 39.5693L66.5828 39.5693Z"
        fill="#C693FF" />
    <path
        d="M105.862 77.2136C84.8386 77.2136 67.7955 60.1702 67.7955 39.1461C67.7955 18.122 84.8386 1.07858 105.862 1.07858C126.886 1.07858 143.929 18.122 143.929 39.1461C143.929 60.1702 126.886 77.2136 105.862 77.2136Z"
        stroke="#282826" stroke-width="2.14936" />
    <line x1="0.421875" y1="39.1304" x2="144.858" y2="39.1304" stroke="#282826"
        stroke-width="2.14936" />
</svg>