<svg width="80" height="81" viewBox="0 0 80 81" fill="none" xmlns="http://www.w3.org/2000/svg">
    <path
        d="M79.2414 40.068C79.2414 50.4473 75.1214 60.4015 67.7878 67.7407C60.4542 75.08 50.5076 79.2031 40.1363 79.2031C29.765 79.2031 19.8185 75.08 12.4849 67.7407C5.15124 60.4014 1.03125 50.4473 1.03125 40.068L40.1363 40.068L79.2414 40.068Z"
        fill="#282826" />
    <path
        d="M39.5676 1.85679C60.6365 1.85679 77.7433 19.1429 77.7433 40.5C77.7433 61.8572 60.6365 79.1432 39.5676 79.1432C18.4988 79.1432 1.39193 61.8571 1.39194 40.5C1.39194 19.1429 18.4988 1.85678 39.5676 1.85679Z"
        stroke="#282826" stroke-width="2.71355" />
    <path
        d="M79.2414 40.068C79.2414 50.4473 75.1214 60.4015 67.7878 67.7407C60.4542 75.08 50.5076 79.2031 40.1363 79.2031C29.765 79.2031 19.8185 75.08 12.4849 67.7407C5.15124 60.4014 1.03125 50.4473 1.03125 40.068L40.1363 40.068L79.2414 40.068Z"
        fill="#FFC700" />
    <path
        d="M39.5676 1.85679C60.6365 1.85679 77.7433 19.1429 77.7433 40.5C77.7433 61.8572 60.6365 79.1432 39.5676 79.1432C18.4988 79.1432 1.39193 61.8571 1.39194 40.5C1.39194 19.1429 18.4988 1.85678 39.5676 1.85679Z"
        stroke="#282826" stroke-width="2.71355" />
    <line x1="79.3125" y1="41.4759" x2="0.0329056" y2="41.4759" stroke="#282826"
        stroke-width="2.71355" />
</svg>